<?xml version="1.0" encoding="utf-8"?>
<!-- Generator: Adobe Illustrator 26.2.1, SVG Export Plug-In . SVG Version: 6.00 Build 0)  -->
<svg version="1.1" id="Layer_1" xmlns="http://www.w3.org/2000/svg" xmlns:xlink="http://www.w3.org/1999/xlink" x="0px" y="0px"
	 viewBox="0 0 112.32 52.32" style="enable-background:new 0 0 112.32 52.32;" xml:space="preserve">
<style type="text/css">
	.st0{fill:none;stroke:#991C1F;stroke-width:1.0952;stroke-miterlimit:10;}
	.st1{fill-rule:evenodd;clip-rule:evenodd;fill:none;stroke:#991C1F;stroke-width:0.7301;stroke-miterlimit:10;}
	.st2{fill:#FFFFFF;}
	.st3{fill-rule:evenodd;clip-rule:evenodd;fill:#991C1F;}
</style>
<g>
	<g id="LOGO">
		<g id="centerInc">
			<line class="st0" x1="50.86" y1="26.81" x2="0" y2="26.81"/>
			<circle class="st1" cx="25.43" cy="26.81" r="17.07"/>
			<path class="st2" d="M46.94,16.23l1.56,0.29c-0.09,0.53-0.23,0.98-0.42,1.37c-0.2,0.39-0.45,0.68-0.76,0.9
				c-0.31,0.21-0.69,0.32-1.17,0.32c-0.46,0-0.84-0.07-1.14-0.21c-0.3-0.14-0.56-0.36-0.78-0.67c-0.22-0.31-0.39-0.67-0.51-1.08
				c-0.12-0.41-0.19-0.96-0.19-1.65c0-0.71,0.07-1.31,0.23-1.78c0.11-0.35,0.26-0.66,0.45-0.94c0.19-0.28,0.39-0.48,0.59-0.62
				c0.32-0.21,0.73-0.32,1.23-0.32c0.7,0,1.24,0.2,1.6,0.61c0.37,0.4,0.63,1,0.77,1.78l-1.55,0.33c-0.05-0.3-0.14-0.52-0.27-0.67
				c-0.13-0.15-0.3-0.23-0.52-0.23c-0.27,0-0.49,0.16-0.66,0.47c-0.17,0.32-0.25,0.79-0.25,1.43c0,0.57,0.08,1,0.25,1.3
				c0.17,0.3,0.38,0.44,0.64,0.44c0.22,0,0.4-0.09,0.54-0.27C46.76,16.88,46.87,16.6,46.94,16.23L46.94,16.23z M53.79,18.94h-1.54
				v-1.12c-0.23,0.46-0.46,0.79-0.69,0.99c-0.23,0.2-0.52,0.29-0.86,0.29c-0.45,0-0.81-0.22-1.07-0.66
				c-0.26-0.44-0.39-1.11-0.39-2.02v-4.42h1.65v3.82c0,0.43,0.05,0.74,0.15,0.93c0.1,0.18,0.24,0.27,0.42,0.27
				c0.2,0,0.36-0.12,0.48-0.37c0.13-0.25,0.19-0.68,0.19-1.31v-3.34h1.65V18.94L53.79,18.94z M54.5,17.02l1.63-0.25
				c0.07,0.31,0.16,0.54,0.28,0.67c0.12,0.14,0.28,0.2,0.49,0.2c0.22,0,0.39-0.08,0.51-0.23c0.09-0.11,0.14-0.25,0.14-0.42
				c0-0.19-0.06-0.34-0.19-0.44c-0.09-0.07-0.33-0.17-0.71-0.27c-0.57-0.16-0.97-0.31-1.19-0.45c-0.22-0.14-0.41-0.37-0.56-0.7
				c-0.15-0.33-0.23-0.7-0.23-1.12c0-0.46,0.08-0.85,0.25-1.18c0.16-0.33,0.39-0.58,0.68-0.74c0.29-0.16,0.68-0.25,1.16-0.25
				c0.51,0,0.89,0.06,1.13,0.19c0.24,0.13,0.45,0.32,0.61,0.59c0.16,0.27,0.3,0.62,0.41,1.08l-1.56,0.25
				c-0.04-0.22-0.11-0.39-0.2-0.49c-0.13-0.14-0.29-0.21-0.47-0.21c-0.18,0-0.32,0.05-0.41,0.16c-0.09,0.11-0.13,0.24-0.13,0.39
				c0,0.17,0.05,0.3,0.16,0.39c0.11,0.09,0.34,0.17,0.7,0.24c0.55,0.1,0.95,0.24,1.22,0.42c0.27,0.18,0.47,0.43,0.61,0.76
				c0.14,0.33,0.21,0.69,0.21,1.09c0,0.4-0.07,0.79-0.23,1.17c-0.15,0.38-0.39,0.68-0.71,0.9c-0.32,0.23-0.76,0.34-1.32,0.34
				c-0.78,0-1.34-0.18-1.68-0.54C54.8,18.2,54.59,17.69,54.5,17.02L54.5,17.02z M61.83,9.37v2.64h0.91v1.94h-0.91v2.46
				c0,0.3,0.02,0.49,0.05,0.59c0.05,0.15,0.15,0.22,0.28,0.22c0.12,0,0.29-0.06,0.51-0.17l0.12,1.84c-0.41,0.14-0.79,0.21-1.14,0.21
				c-0.41,0-0.71-0.08-0.91-0.25c-0.19-0.17-0.34-0.43-0.43-0.77c-0.09-0.35-0.14-0.91-0.14-1.68v-2.44h-0.61v-1.94h0.61v-1.28
				L61.83,9.37L61.83,9.37z M63.32,15.49c0-1.06,0.22-1.93,0.66-2.62c0.44-0.69,1.04-1.03,1.79-1.03c0.86,0,1.51,0.4,1.95,1.21
				c0.35,0.65,0.53,1.45,0.53,2.4c0,1.07-0.22,1.94-0.66,2.62c-0.44,0.68-1.04,1.02-1.82,1.02c-0.69,0-1.25-0.28-1.67-0.85
				C63.58,17.55,63.32,16.63,63.32,15.49L63.32,15.49z M64.97,15.49c0,0.62,0.08,1.08,0.23,1.37c0.15,0.3,0.35,0.45,0.58,0.45
				c0.24,0,0.43-0.15,0.58-0.44c0.15-0.29,0.23-0.76,0.23-1.4c0-0.6-0.08-1.05-0.23-1.34c-0.15-0.29-0.34-0.44-0.57-0.44
				c-0.24,0-0.44,0.15-0.59,0.45C65.05,14.42,64.97,14.88,64.97,15.49L64.97,15.49z M69.06,12.01h1.54v1.01
				c0.22-0.42,0.44-0.72,0.67-0.9c0.23-0.18,0.5-0.27,0.82-0.27c0.34,0,0.61,0.1,0.81,0.29c0.2,0.2,0.36,0.49,0.49,0.88
				c0.26-0.45,0.49-0.76,0.71-0.93c0.21-0.16,0.47-0.25,0.79-0.25c0.46,0,0.82,0.22,1.08,0.66c0.26,0.44,0.39,1.13,0.39,2.07v4.36
				H74.7v-3.95c0-0.31-0.04-0.55-0.11-0.7c-0.11-0.24-0.25-0.36-0.41-0.36c-0.19,0-0.35,0.11-0.47,0.34
				c-0.12,0.23-0.18,0.59-0.18,1.09v3.58h-1.65v-3.82c0-0.31-0.01-0.51-0.03-0.62c-0.04-0.17-0.1-0.31-0.18-0.42
				c-0.09-0.11-0.19-0.16-0.3-0.16c-0.19,0-0.34,0.12-0.47,0.35c-0.12,0.23-0.18,0.61-0.18,1.14v3.54h-1.65V12.01L69.06,12.01z"/>
			<g>
				<path class="st2" d="M60.32,46.54l1.58,0.17c-0.25,0.83-0.71,1.47-1.38,1.93c-0.67,0.45-1.53,0.68-2.58,0.68
					c-1.32,0-2.36-0.36-3.13-1.09c-0.77-0.73-1.16-1.75-1.16-3.06c0-1.36,0.39-2.42,1.17-3.17c0.78-0.75,1.79-1.13,3.04-1.13
					c1.2,0,2.19,0.37,2.95,1.1c0.76,0.74,1.15,1.77,1.15,3.11c0,0.08,0,0.21-0.01,0.37h-6.72c0.06,0.89,0.34,1.57,0.84,2.04
					c0.5,0.47,1.13,0.71,1.88,0.71c0.56,0,1.04-0.13,1.43-0.4C59.78,47.54,60.09,47.12,60.32,46.54L60.32,46.54z M55.31,44.33h5.03
					c-0.07-0.68-0.26-1.19-0.58-1.53c-0.49-0.53-1.12-0.79-1.89-0.79c-0.7,0-1.29,0.21-1.77,0.63
					C55.62,43.06,55.36,43.62,55.31,44.33L55.31,44.33z M62.27,49.15v-8.09h1.37v1.15c0.66-0.89,1.62-1.33,2.87-1.33
					c0.54,0,1.04,0.09,1.5,0.26c0.46,0.18,0.8,0.41,1.02,0.69c0.23,0.28,0.39,0.62,0.48,1.01c0.05,0.25,0.08,0.7,0.08,1.33v4.97
					h-1.53v-4.92c0-0.56-0.06-0.97-0.18-1.25c-0.12-0.28-0.33-0.5-0.63-0.66c-0.3-0.17-0.66-0.25-1.07-0.25
					c-0.65,0-1.21,0.19-1.68,0.56c-0.47,0.37-0.71,1.07-0.71,2.11v4.42H62.27L62.27,49.15z M73.72,47.92l0.22,1.21
					c-0.43,0.08-0.81,0.12-1.15,0.12c-0.56,0-0.98-0.08-1.29-0.24c-0.3-0.16-0.52-0.36-0.64-0.62c-0.12-0.25-0.19-0.8-0.19-1.62
					v-4.65h-1.12v-1.07h1.12v-2l1.52-0.82v2.82h1.53v1.07h-1.53v4.73c0,0.39,0.03,0.64,0.08,0.75c0.06,0.11,0.14,0.2,0.26,0.27
					c0.12,0.06,0.3,0.1,0.52,0.1C73.22,47.98,73.44,47.96,73.72,47.92L73.72,47.92z M79.84,46.54l1.58,0.17
					c-0.25,0.83-0.71,1.47-1.38,1.93c-0.67,0.45-1.53,0.68-2.58,0.68c-1.32,0-2.36-0.36-3.13-1.09c-0.77-0.73-1.16-1.75-1.16-3.06
					c0-1.36,0.39-2.42,1.17-3.17c0.78-0.75,1.79-1.13,3.04-1.13c1.2,0,2.19,0.37,2.95,1.1c0.76,0.74,1.15,1.77,1.15,3.11
					c0,0.08,0,0.21-0.01,0.37h-6.72c0.06,0.89,0.34,1.57,0.84,2.04c0.5,0.47,1.13,0.71,1.88,0.71c0.56,0,1.04-0.13,1.43-0.4
					C79.29,47.54,79.6,47.12,79.84,46.54L79.84,46.54z M74.82,44.33h5.03c-0.07-0.68-0.26-1.19-0.58-1.53
					c-0.49-0.53-1.12-0.79-1.89-0.79c-0.7,0-1.29,0.21-1.77,0.63C75.14,43.06,74.88,43.62,74.82,44.33L74.82,44.33z M81.77,49.15
					v-8.09h1.37v1.22c0.35-0.57,0.67-0.95,0.97-1.13c0.3-0.18,0.62-0.28,0.98-0.28c0.52,0,1.04,0.15,1.57,0.44l-0.53,1.27
					c-0.37-0.2-0.74-0.3-1.12-0.3c-0.34,0-0.63,0.09-0.9,0.27c-0.27,0.18-0.45,0.43-0.57,0.75c-0.17,0.49-0.25,1.02-0.25,1.6v4.23
					H81.77L81.77,49.15z M85.47,49.15v-1.56h1.74v1.56c0,0.57-0.11,1.04-0.34,1.39c-0.23,0.35-0.59,0.62-1.08,0.82l-0.43-0.59
					c0.32-0.13,0.56-0.31,0.71-0.56c0.15-0.25,0.24-0.6,0.25-1.06H85.47L85.47,49.15z"/>
				<g>
					<path class="st2" d="M108.51,46.33l1.23,0.27c-0.26,0.89-0.72,1.57-1.39,2.03c-0.67,0.47-1.48,0.7-2.45,0.7
						c-1,0-1.81-0.18-2.44-0.54c-0.63-0.36-1.1-0.88-1.43-1.56c-0.33-0.68-0.49-1.41-0.49-2.19c0-0.85,0.18-1.59,0.55-2.23
						c0.37-0.63,0.89-1.12,1.57-1.45c0.68-0.33,1.43-0.49,2.25-0.49c0.93,0,1.71,0.21,2.34,0.62c0.63,0.42,1.07,1,1.32,1.76
						l-1.21,0.25c-0.22-0.6-0.53-1.03-0.94-1.3c-0.41-0.27-0.92-0.41-1.54-0.41c-0.71,0-1.31,0.15-1.78,0.45
						c-0.48,0.3-0.82,0.71-1.01,1.22c-0.19,0.51-0.29,1.03-0.29,1.57c0,0.7,0.11,1.3,0.34,1.82c0.23,0.52,0.59,0.91,1.07,1.16
						c0.49,0.26,1.01,0.38,1.57,0.38c0.69,0,1.27-0.18,1.74-0.52C108.02,47.54,108.34,47.02,108.51,46.33L108.51,46.33z"/>
				</g>
				<g>
					<polygon class="st2" points="109.94,47.43 111.81,47.43 111.81,49.17 109.94,49.17 109.94,47.43 					"/>
				</g>
				<polygon class="st2" points="91.42,49.12 91.42,37.8 92.94,37.8 92.94,49.12 91.42,49.12 				"/>
				<path class="st2" d="M93.6,49.16v-7.9h1.35v1.12c0.65-0.87,1.6-1.3,2.83-1.3c0.54,0,1.03,0.09,1.48,0.26
					c0.45,0.17,0.79,0.4,1.01,0.68c0.23,0.28,0.38,0.61,0.47,0.99c0.05,0.25,0.08,0.68,0.08,1.3v4.86h-1.51v-4.81
					c0-0.54-0.06-0.95-0.17-1.22c-0.12-0.27-0.33-0.48-0.62-0.64c-0.3-0.16-0.65-0.24-1.05-0.24c-0.64,0-1.19,0.18-1.66,0.54
					c-0.47,0.36-0.7,1.05-0.7,2.06v4.31H93.6L93.6,49.16z"/>
				<path class="st2" d="M51.84,45.31l1.62,0.34c-0.34,1.11-0.95,1.96-1.83,2.54c-0.88,0.58-1.96,0.87-3.24,0.87
					c-1.32,0-2.39-0.22-3.22-0.67c-0.83-0.45-1.46-1.1-1.89-1.95c-0.43-0.85-0.65-1.77-0.65-2.74c0-1.06,0.24-1.99,0.73-2.78
					c0.49-0.79,1.18-1.39,2.08-1.81c0.9-0.41,1.89-0.62,2.97-0.62c1.23,0,2.26,0.26,3.09,0.78c0.84,0.52,1.42,1.25,1.75,2.2
					l-1.59,0.31c-0.29-0.75-0.7-1.29-1.24-1.63c-0.54-0.34-1.22-0.51-2.04-0.51c-0.94,0-1.73,0.19-2.36,0.56
					c-0.63,0.38-1.08,0.88-1.33,1.52c-0.26,0.63-0.39,1.29-0.39,1.96c0,0.87,0.15,1.63,0.45,2.28c0.31,0.65,0.78,1.13,1.42,1.45
					c0.64,0.32,1.34,0.48,2.08,0.48c0.91,0,1.67-0.22,2.31-0.65C51.19,46.82,51.62,46.17,51.84,45.31L51.84,45.31z"/>
			</g>
			<path class="st2" d="M38.12,30.87l4.26-0.25c0.09,0.65,0.28,1.14,0.56,1.49c0.46,0.55,1.12,0.82,1.98,0.82
				c0.64,0,1.13-0.14,1.48-0.42c0.34-0.28,0.52-0.61,0.52-0.98c0-0.35-0.16-0.67-0.49-0.95c-0.33-0.28-1.09-0.54-2.29-0.79
				c-1.96-0.42-3.36-0.96-4.2-1.65c-0.84-0.69-1.26-1.56-1.26-2.63c0-0.7,0.22-1.36,0.65-1.98c0.43-0.62,1.08-1.11,1.94-1.47
				c0.87-0.36,2.05-0.53,3.56-0.53c1.85,0,3.26,0.32,4.23,0.97c0.97,0.65,1.55,1.68,1.73,3.09l-4.22,0.23
				c-0.11-0.61-0.35-1.06-0.71-1.34c-0.36-0.28-0.85-0.42-1.48-0.42c-0.52,0-0.91,0.1-1.18,0.31c-0.26,0.21-0.39,0.46-0.39,0.76
				c0,0.22,0.11,0.41,0.32,0.58c0.21,0.18,0.71,0.35,1.5,0.5c1.95,0.4,3.35,0.8,4.2,1.2c0.85,0.41,1.46,0.91,1.85,1.51
				c0.38,0.6,0.58,1.27,0.58,2.02c0,0.87-0.26,1.68-0.77,2.41c-0.51,0.74-1.23,1.3-2.15,1.68c-0.92,0.38-2.08,0.57-3.48,0.57
				c-2.46,0-4.17-0.44-5.11-1.34C38.78,33.37,38.24,32.24,38.12,30.87L38.12,30.87z M53.68,21.76h4.48v13.61h-4.48V21.76
				L53.68,21.76z M68.65,30.44v-2.83h6.91v5.8c-1.32,0.85-2.49,1.43-3.51,1.73c-1.02,0.31-2.22,0.46-3.62,0.46
				c-1.72,0-3.12-0.28-4.2-0.83c-1.09-0.55-1.92-1.37-2.52-2.46c-0.6-1.09-0.9-2.34-0.9-3.75c0-1.49,0.33-2.78,0.98-3.88
				c0.65-1.1,1.61-1.93,2.86-2.5c0.98-0.44,2.3-0.66,3.96-0.66c1.6,0,2.79,0.14,3.59,0.41c0.79,0.27,1.45,0.69,1.97,1.27
				c0.52,0.57,0.92,1.3,1.18,2.18l-4.31,0.72c-0.18-0.51-0.48-0.91-0.91-1.18c-0.42-0.27-0.96-0.41-1.62-0.41
				c-0.98,0-1.76,0.32-2.35,0.96c-0.58,0.64-0.88,1.65-0.88,3.04c0,1.47,0.3,2.53,0.89,3.16c0.59,0.63,1.41,0.95,2.46,0.95
				c0.5,0,0.98-0.07,1.43-0.21c0.45-0.14,0.98-0.37,1.56-0.69v-1.28H68.65L68.65,30.44z M78.24,21.76h4.18l5.45,7.53v-7.53h4.22
				v13.61h-4.22l-5.42-7.47v7.47h-4.21V21.76L78.24,21.76z"/>
			<g>
				<circle class="st3" cx="25.43" cy="26.81" r="8.69"/>
				<line class="st0" x1="25.43" y1="1.39" x2="25.43" y2="52.24"/>
			</g>
		</g>
	</g>
</g>
</svg>
